<svg id="Capa_1" enable-background="new 0 0 510 510" height="512" viewBox="0 0 510 510" width="512" xmlns="http://www.w3.org/2000/svg"><path d="m510 43.548v349.706c0 18.647-15.122 33.769-33.769 33.769h-166.754c-1.784 0-3.441.892-4.418 2.368l-45.642 68.452c-1.051 1.572-2.74 2.369-4.418 2.369s-3.366-.796-4.418-2.369l-45.642-68.452c-.977-1.476-2.634-2.368-4.418-2.368h-166.762c-18.648 0-33.759-15.112-33.759-33.759v-349.706c0-18.647 15.122-33.769 33.769-33.769h442.472c18.648 0 33.759 15.111 33.759 33.759z" fill="#86e0be"/><path d="m510 43.548v349.706c0 18.647-15.122 33.769-33.769 33.769h-166.754c-1.784 0-3.441.892-4.418 2.368l-45.642 68.452c-1.051 1.572-2.74 2.369-4.418 2.369v-490.423h221.241c18.649 0 33.76 15.111 33.76 33.759z" fill="#6ed4ac"/><path d="m315 171.468c0 8.28-6.72 15-15 15h-251.87c-8.08 0-15.03-6.22-15.4-14.29-.4-8.61 6.45-15.71 14.98-15.71h252.29c8.28 0 15 6.72 15 15z" fill="#44446b"/><path d="m315 171.468c0 8.28-6.72 15-15 15h-45v-30h45c8.28 0 15 6.72 15 15z" fill="#35355e"/><path d="m315 100.828c0 8.28-6.72 15-15 15h-251.87c-8.07 0-15.02-6.2-15.4-14.26-.41-8.62 6.45-15.74 14.98-15.74h252.29c8.28 0 15 6.72 15 15z" fill="#44446b"/><path d="m300 115.828h-45v-30h45c8.28 0 15 6.72 15 15s-6.72 15-15 15z" fill="#35355e"/><path d="m222 242.108c0 8.284-6.716 15-15 15h-158.867c-8.073 0-15.02-6.201-15.406-14.264-.412-8.614 6.448-15.736 14.982-15.736h159.291c8.284 0 15 6.716 15 15z" fill="#44446b"/><path d="m222 312.748c0 8.284-6.716 15-15 15h-158.866c-8.072 0-15.02-6.2-15.406-14.263-.412-8.614 6.448-15.737 14.982-15.737h159.29c8.284 0 15 6.716 15 15z" fill="#44446b"/><path d="m449.844 159.689h-.011l-66.655 160.917c-.369.884-.853 1.726-1.432 2.506l-27.627-2.053-14.687-1.095-14.224-11.623-21.436-17.53c.137-.947.39-1.895.758-2.779l66.655-160.917 45.945 3.538z" fill="#3972e5"/><path d="m425.144 149.466-71.025 171.592-14.687-1.095-14.224-11.623 70.762-170.961z" fill="#fff"/><path d="m381.751 323.107c-.542.726-1.165 1.384-1.868 1.961l-35.83 29.718-23.744 19.708c-3.563 2.964-8.995.715-9.422-3.898l-2.86-30.733-4.324-46.347c-.081-.911-.058-1.822.069-2.71z" fill="#ffcebf"/><path d="m344.053 354.785-23.744 19.708c-3.563 2.964-8.995.715-9.422-3.898l-2.86-30.733z" fill="#44446b"/><path d="m473.084 103.585-10.01 24.148-42.335-.619-36.313-31.97 9.998-24.136c8.995-21.727 33.904-32.036 55.619-23.041s32.036 33.892 23.041 55.618z" fill="#ff3369"/><path d="m463.074 127.733-13.227 31.955h-.011l-78.648-32.578 13.238-31.966z" fill="#ffb033"/></svg>